<svg width="111" height="34" viewBox="0 0 111 34" fill="none" xmlns="http://www.w3.org/2000/svg">
<rect x="0.5" width="110" height="34" rx="5.54557" fill="#090909"/>
<path d="M18.6073 8.09248C19.6569 8.8572 20.4741 9.901 21.172 10.8998L21.5779 11.491L21.9608 12.0556C22.1524 12.3354 22.2343 12.6758 22.1909 13.012C22.1476 13.3482 21.982 13.6568 21.7257 13.8788L19.9342 15.2091C19.8476 15.2715 19.7867 15.3633 19.7627 15.4673C19.7387 15.5713 19.7533 15.6805 19.8038 15.7746C20.2097 16.5117 20.9314 17.6097 21.7579 18.4359C22.5853 19.2622 23.7349 20.0315 24.5237 20.4831C24.6226 20.5386 24.739 20.5542 24.849 20.5265C24.959 20.4988 25.0542 20.4301 25.1151 20.3344L26.2813 18.5599C26.4957 18.2751 26.812 18.0844 27.1639 18.0276C27.5159 17.9708 27.8761 18.0523 28.1693 18.2551L28.7781 18.6765C29.9158 19.466 31.1381 20.3629 32.0729 21.5591C32.2211 21.7498 32.3154 21.9769 32.346 22.2165C32.3765 22.4562 32.3421 22.6996 32.2464 22.9214C31.4778 24.7143 29.5329 26.241 27.51 26.1667L27.2345 26.1511L27.0205 26.1327L26.7836 26.1052L26.5256 26.0703L26.2455 26.0244C26.1965 26.0155 26.1475 26.0063 26.0986 25.9968L25.79 25.9307C25.7361 25.9189 25.6822 25.9066 25.6284 25.894L25.2923 25.8077L24.9388 25.7067L24.5696 25.5874C22.8745 25.0127 20.723 23.8835 18.5155 21.6766C16.3088 19.4705 15.1794 17.3196 14.6045 15.6249L14.4852 15.2559L14.3841 14.9024L14.2978 14.5664L14.2262 14.2488C14.2055 14.1493 14.1862 14.0495 14.1684 13.9495L14.1224 13.6695L14.0857 13.4115L14.0591 13.1747L14.0407 12.9608L14.026 12.6854C13.9516 10.6694 15.4953 8.71123 17.2804 7.94651C17.4952 7.85376 17.7305 7.81844 17.9631 7.84403C18.1958 7.86962 18.4177 7.95524 18.6073 8.09248ZM26.0775 11.3928L26.184 11.4047C26.8524 11.5226 27.4663 11.849 27.9378 12.3372C28.4092 12.8253 28.714 13.4501 28.8084 14.1221C28.8421 14.3545 28.7853 14.591 28.6499 14.7829C28.5145 14.9748 28.3106 15.1075 28.0803 15.1537C27.85 15.1999 27.6107 15.1561 27.4117 15.0314C27.2127 14.9066 27.0691 14.7103 27.0104 14.4829L26.9893 14.3773C26.9524 14.1139 26.8399 13.8669 26.6655 13.666C26.4912 13.4651 26.2624 13.319 26.0067 13.2454L25.8644 13.2133C25.6338 13.1724 25.4276 13.045 25.2878 12.8572C25.1481 12.6693 25.0854 12.4352 25.1126 12.2026C25.1398 11.9701 25.2549 11.7568 25.4342 11.6062C25.6136 11.4557 25.8437 11.3793 26.0775 11.3928ZM26.0848 8.60198C27.546 8.60198 28.9474 9.18231 29.9807 10.2153C31.014 11.2483 31.5944 12.6493 31.5944 14.1102C31.5942 14.3442 31.5046 14.5692 31.3439 14.7394C31.1832 14.9095 30.9636 15.0119 30.73 15.0256C30.4963 15.0393 30.2663 14.9633 30.0868 14.8131C29.9073 14.663 29.792 14.4499 29.7643 14.2176L29.7579 14.1102C29.7582 13.1778 29.4037 12.2803 28.7661 11.5998C28.1286 10.9194 27.256 10.5069 26.3254 10.4463L26.0848 10.438C25.8413 10.438 25.6077 10.3413 25.4355 10.1692C25.2633 9.99699 25.1665 9.76349 25.1665 9.52001C25.1665 9.27654 25.2633 9.04303 25.4355 8.87087C25.6077 8.6987 25.8413 8.60198 26.0848 8.60198Z" fill="white"/>
<path d="M39.6687 10.548C39.6222 10.3973 39.558 10.2625 39.4761 10.1434C39.3962 10.0225 39.2994 9.91927 39.186 9.83371C39.0744 9.74814 38.946 9.68397 38.8009 9.64118C38.6558 9.59654 38.4977 9.57422 38.3266 9.57422C38.0197 9.57422 37.7462 9.65141 37.5063 9.8058C37.2663 9.96019 37.0775 10.1871 36.9399 10.4866C36.8041 10.7842 36.7362 11.1469 36.7362 11.5748C36.7362 12.0063 36.8041 12.3718 36.9399 12.6713C37.0757 12.9708 37.2645 13.1987 37.5063 13.3549C37.7481 13.5093 38.029 13.5865 38.3489 13.5865C38.6391 13.5865 38.8902 13.5307 39.1023 13.4191C39.3162 13.3075 39.4808 13.1494 39.5961 12.9448C39.7114 12.7383 39.7691 12.4965 39.7691 12.2193L40.0035 12.2556H38.4521V11.4464H40.7708V12.1328C40.7708 12.622 40.6666 13.0452 40.4583 13.4023C40.25 13.7595 39.9635 14.0348 39.5989 14.2282C39.2343 14.4198 38.8158 14.5156 38.3433 14.5156C37.8169 14.5156 37.3547 14.3975 36.9566 14.1613C36.5604 13.9232 36.2507 13.5856 36.0275 13.1484C35.8061 12.7094 35.6955 12.1886 35.6955 11.5859C35.6955 11.1246 35.7606 10.7126 35.8908 10.3499C36.0228 9.98717 36.207 9.67932 36.4432 9.42634C36.6795 9.1715 36.9566 8.97805 37.2747 8.84598C37.5928 8.71205 37.9388 8.64509 38.3126 8.64509C38.6289 8.64509 38.9237 8.69159 39.1971 8.7846C39.4706 8.87574 39.7133 9.00595 39.9254 9.17522C40.1393 9.34449 40.3151 9.54539 40.4527 9.7779C40.5904 10.0104 40.6806 10.2671 40.7234 10.548H39.6687ZM41.9957 14.4375V10.1518H43.0057V14.4375H41.9957ZM42.5035 9.54353C42.3435 9.54353 42.2059 9.49051 42.0905 9.38449C41.9752 9.2766 41.9176 9.14732 41.9176 8.99665C41.9176 8.84412 41.9752 8.71484 42.0905 8.60882C42.2059 8.50093 42.3435 8.44699 42.5035 8.44699C42.6653 8.44699 42.803 8.50093 42.9164 8.60882C43.0318 8.71484 43.0894 8.84412 43.0894 8.99665C43.0894 9.14732 43.0318 9.2766 42.9164 9.38449C42.803 9.49051 42.6653 9.54353 42.5035 9.54353ZM47.8725 10.1518L46.3463 14.4375H45.2302L43.704 10.1518H44.781L45.7659 13.3354H45.8105L46.7983 10.1518H47.8725ZM50.323 14.5212C49.8933 14.5212 49.5222 14.4319 49.2097 14.2533C48.899 14.0729 48.66 13.8181 48.4926 13.4888C48.3252 13.1577 48.2415 12.768 48.2415 12.3198C48.2415 11.8789 48.3252 11.492 48.4926 11.159C48.6619 10.8242 48.8981 10.5638 49.2013 10.3778C49.5045 10.1899 49.8607 10.096 50.2699 10.096C50.5341 10.096 50.7833 10.1388 51.0177 10.2243C51.254 10.308 51.4623 10.4382 51.6427 10.615C51.825 10.7917 51.9682 11.0167 52.0724 11.2902C52.1766 11.5618 52.2287 11.8854 52.2287 12.2612V12.5709H48.7158V11.8901H51.2605C51.2586 11.6966 51.2168 11.5246 51.1349 11.3739C51.0531 11.2214 50.9387 11.1014 50.7917 11.014C50.6466 10.9265 50.4774 10.8828 50.2839 10.8828C50.0774 10.8828 49.8961 10.933 49.7398 11.0335C49.5836 11.1321 49.4617 11.2623 49.3743 11.4241C49.2887 11.5841 49.245 11.7599 49.2432 11.9515V12.5458C49.2432 12.795 49.2887 13.0089 49.3799 13.1875C49.471 13.3642 49.5984 13.5 49.7621 13.5949C49.9258 13.6879 50.1174 13.7344 50.3369 13.7344C50.4839 13.7344 50.6169 13.7139 50.7359 13.673C50.855 13.6302 50.9582 13.5679 51.0456 13.486C51.133 13.4042 51.1991 13.3028 51.2437 13.1819L52.1868 13.2879C52.1273 13.5372 52.0138 13.7548 51.8464 13.9408C51.6809 14.125 51.4688 14.2682 51.2102 14.3705C50.9517 14.471 50.6559 14.5212 50.323 14.5212ZM57.7637 12.635V10.1518H58.7737V14.4375H57.7944V13.6758H57.7497C57.653 13.9157 57.494 14.112 57.2726 14.2645C57.0531 14.417 56.7825 14.4933 56.4607 14.4933C56.1798 14.4933 55.9315 14.431 55.7157 14.3064C55.5018 14.1799 55.3344 13.9967 55.2134 13.7567C55.0925 13.5149 55.0321 13.2228 55.0321 12.8806V10.1518H56.0421V12.7243C56.0421 12.9959 56.1165 13.2117 56.2653 13.3717C56.4142 13.5316 56.6095 13.6116 56.8513 13.6116C57.0001 13.6116 57.1443 13.5753 57.2838 13.5028C57.4233 13.4302 57.5377 13.3224 57.627 13.1791C57.7181 13.034 57.7637 12.8527 57.7637 12.635ZM63.1996 11.2846L62.2789 11.385C62.2528 11.292 62.2073 11.2046 62.1422 11.1228C62.0789 11.0409 61.9933 10.9749 61.8855 10.9247C61.7776 10.8744 61.6455 10.8493 61.4893 10.8493C61.2791 10.8493 61.1024 10.8949 60.9591 10.986C60.8178 11.0772 60.748 11.1953 60.7499 11.3404C60.748 11.465 60.7936 11.5664 60.8866 11.6445C60.9814 11.7227 61.1377 11.7868 61.3553 11.8371L62.0864 11.9933C62.4919 12.0807 62.7932 12.2193 62.9904 12.409C63.1894 12.5988 63.2899 12.8471 63.2917 13.154C63.2899 13.4237 63.2108 13.6618 63.0545 13.8683C62.9002 14.0729 62.6853 14.2329 62.41 14.3482C62.1347 14.4635 61.8185 14.5212 61.4614 14.5212C60.9368 14.5212 60.5146 14.4115 60.1946 14.192C59.8747 13.9706 59.684 13.6628 59.6226 13.2684L60.6076 13.1735C60.6522 13.367 60.7471 13.513 60.8922 13.6116C61.0372 13.7102 61.2261 13.7595 61.4586 13.7595C61.6985 13.7595 61.891 13.7102 62.0361 13.6116C62.1831 13.513 62.2566 13.3912 62.2566 13.2461C62.2566 13.1233 62.2091 13.0219 62.1143 12.942C62.0213 12.862 61.8762 12.8006 61.679 12.7578L60.948 12.6044C60.5369 12.5188 60.2327 12.3746 60.0356 12.1719C59.8384 11.9673 59.7407 11.7087 59.7426 11.3962C59.7407 11.1321 59.8124 10.9033 59.9574 10.7098C60.1044 10.5145 60.3081 10.3638 60.5685 10.2578C60.8308 10.1499 61.133 10.096 61.4753 10.096C61.9775 10.096 62.3728 10.2029 62.6611 10.4169C62.9513 10.6308 63.1308 10.92 63.1996 11.2846ZM67.3068 14.524C67.0352 14.524 66.7906 14.4756 66.573 14.3789C66.3572 14.2803 66.1861 14.1352 66.0596 13.9436C65.9349 13.752 65.8726 13.5158 65.8726 13.2349C65.8726 12.9931 65.9173 12.7932 66.0066 12.635C66.0958 12.4769 66.2177 12.3504 66.3721 12.2556C66.5265 12.1607 66.7004 12.0891 66.8938 12.0407C67.0891 11.9905 67.291 11.9542 67.4993 11.9319C67.7504 11.9059 67.9541 11.8826 68.1103 11.8622C68.2666 11.8398 68.3801 11.8064 68.4508 11.7617C68.5233 11.7152 68.5596 11.6436 68.5596 11.5469V11.5301C68.5596 11.3199 68.4973 11.1572 68.3726 11.0419C68.248 10.9265 68.0685 10.8689 67.8341 10.8689C67.5867 10.8689 67.3905 10.9228 67.2454 11.0307C67.1022 11.1386 67.0054 11.266 66.9552 11.4129L66.0121 11.279C66.0865 11.0186 66.2093 10.801 66.3804 10.6261C66.5516 10.4494 66.7608 10.3173 67.0082 10.2299C67.2556 10.1406 67.5291 10.096 67.8285 10.096C68.035 10.096 68.2406 10.1202 68.4452 10.1685C68.6498 10.2169 68.8367 10.2969 69.006 10.4085C69.1753 10.5182 69.3111 10.668 69.4134 10.8577C69.5175 11.0474 69.5696 11.2846 69.5696 11.5692V14.4375H68.5986V13.8488H68.5651C68.5038 13.9678 68.4173 14.0794 68.3057 14.1836C68.1959 14.2859 68.0573 14.3687 67.8899 14.4319C67.7244 14.4933 67.53 14.524 67.3068 14.524ZM67.5691 13.7818C67.7718 13.7818 67.9476 13.7418 68.0964 13.6618C68.2452 13.58 68.3596 13.4721 68.4396 13.3382C68.5214 13.2042 68.5624 13.0582 68.5624 12.9001V12.3951C68.5307 12.4211 68.4768 12.4453 68.4005 12.4676C68.3261 12.49 68.2424 12.5095 68.1494 12.5262C68.0564 12.543 67.9643 12.5578 67.8732 12.5709C67.782 12.5839 67.703 12.5951 67.636 12.6044C67.4853 12.6248 67.3505 12.6583 67.2314 12.7048C67.1124 12.7513 67.0185 12.8164 66.9496 12.9001C66.8808 12.982 66.8464 13.088 66.8464 13.2182C66.8464 13.4042 66.9143 13.5446 67.0501 13.6395C67.1859 13.7344 67.3589 13.7818 67.5691 13.7818ZM74.4036 14.5212C73.9758 14.5212 73.6084 14.4273 73.3015 14.2394C72.9964 14.0515 72.7611 13.792 72.5956 13.4609C72.4319 13.128 72.35 12.7448 72.35 12.3114C72.35 11.8761 72.4337 11.492 72.6011 11.159C72.7686 10.8242 73.0048 10.5638 73.3098 10.3778C73.6168 10.1899 73.9795 10.096 74.398 10.096C74.7459 10.096 75.0537 10.1602 75.3216 10.2885C75.5913 10.415 75.8061 10.5945 75.9661 10.827C76.1261 11.0577 76.2172 11.3274 76.2395 11.6362H75.2741C75.2351 11.4297 75.1421 11.2576 74.9951 11.12C74.85 10.9805 74.6556 10.9107 74.412 10.9107C74.2055 10.9107 74.0241 10.9665 73.8679 11.0781C73.7116 11.1879 73.5898 11.346 73.5024 11.5525C73.4168 11.7589 73.374 12.0063 73.374 12.2946C73.374 12.5867 73.4168 12.8378 73.5024 13.048C73.5879 13.2563 73.7079 13.4172 73.8623 13.5307C74.0186 13.6423 74.2018 13.6981 74.412 13.6981C74.5608 13.6981 74.6938 13.6702 74.811 13.6144C74.93 13.5567 75.0295 13.474 75.1095 13.3661C75.1895 13.2582 75.2444 13.127 75.2741 12.9727H76.2395C76.2154 13.2759 76.1261 13.5446 75.9717 13.779C75.8173 14.0115 75.6071 14.1938 75.3411 14.3259C75.0751 14.4561 74.7626 14.5212 74.4036 14.5212ZM78.3022 14.524C78.0306 14.524 77.786 14.4756 77.5684 14.3789C77.3526 14.2803 77.1815 14.1352 77.055 13.9436C76.9303 13.752 76.868 13.5158 76.868 13.2349C76.868 12.9931 76.9127 12.7932 77.002 12.635C77.0912 12.4769 77.2131 12.3504 77.3675 12.2556C77.5219 12.1607 77.6958 12.0891 77.8892 12.0407C78.0845 11.9905 78.2864 11.9542 78.4947 11.9319C78.7458 11.9059 78.9495 11.8826 79.1057 11.8622C79.262 11.8398 79.3755 11.8064 79.4461 11.7617C79.5187 11.7152 79.555 11.6436 79.555 11.5469V11.5301C79.555 11.3199 79.4927 11.1572 79.368 11.0419C79.2434 10.9265 79.0639 10.8689 78.8295 10.8689C78.5821 10.8689 78.3859 10.9228 78.2408 11.0307C78.0976 11.1386 78.0008 11.266 77.9506 11.4129L77.0075 11.279C77.0819 11.0186 77.2047 10.801 77.3758 10.6261C77.547 10.4494 77.7562 10.3173 78.0036 10.2299C78.251 10.1406 78.5245 10.096 78.8239 10.096C79.0304 10.096 79.236 10.1202 79.4406 10.1685C79.6452 10.2169 79.8321 10.2969 80.0014 10.4085C80.1707 10.5182 80.3065 10.668 80.4088 10.8577C80.5129 11.0474 80.565 11.2846 80.565 11.5692V14.4375H79.594V13.8488H79.5605C79.4992 13.9678 79.4127 14.0794 79.3011 14.1836C79.1913 14.2859 79.0527 14.3687 78.8853 14.4319C78.7198 14.4933 78.5254 14.524 78.3022 14.524ZM78.5645 13.7818C78.7672 13.7818 78.943 13.7418 79.0918 13.6618C79.2406 13.58 79.355 13.4721 79.435 13.3382C79.5168 13.2042 79.5578 13.0582 79.5578 12.9001V12.3951C79.5261 12.4211 79.4722 12.4453 79.3959 12.4676C79.3215 12.49 79.2378 12.5095 79.1448 12.5262C79.0518 12.543 78.9597 12.5578 78.8686 12.5709C78.7774 12.5839 78.6984 12.5951 78.6314 12.6044C78.4807 12.6248 78.3459 12.6583 78.2268 12.7048C78.1078 12.7513 78.0139 12.8164 77.945 12.9001C77.8762 12.982 77.8418 13.088 77.8418 13.2182C77.8418 13.4042 77.9097 13.5446 78.0455 13.6395C78.1813 13.7344 78.3543 13.7818 78.5645 13.7818ZM82.5907 8.72321V14.4375H81.5806V8.72321H82.5907ZM84.6394 8.72321V14.4375H83.6293V8.72321H84.6394ZM89.4964 14.5212C89.0778 14.5212 88.7151 14.4291 88.4082 14.245C88.1013 14.0608 87.8632 13.8032 87.6939 13.4721C87.5265 13.141 87.4428 12.7541 87.4428 12.3114C87.4428 11.8687 87.5265 11.4808 87.6939 11.1479C87.8632 10.8149 88.1013 10.5564 88.4082 10.3722C88.7151 10.1881 89.0778 10.096 89.4964 10.096C89.9149 10.096 90.2776 10.1881 90.5845 10.3722C90.8915 10.5564 91.1286 10.8149 91.296 11.1479C91.4653 11.4808 91.5499 11.8687 91.5499 12.3114C91.5499 12.7541 91.4653 13.141 91.296 13.4721C91.1286 13.8032 90.8915 14.0608 90.5845 14.245C90.2776 14.4291 89.9149 14.5212 89.4964 14.5212ZM89.502 13.7121C89.7289 13.7121 89.9186 13.6497 90.0711 13.5251C90.2237 13.3986 90.3371 13.2294 90.4116 13.0173C90.4878 12.8052 90.5259 12.569 90.5259 12.3086C90.5259 12.0463 90.4878 11.8092 90.4116 11.5971C90.3371 11.3832 90.2237 11.213 90.0711 11.0865C89.9186 10.96 89.7289 10.8968 89.502 10.8968C89.2694 10.8968 89.076 10.96 88.9216 11.0865C88.7691 11.213 88.6547 11.3832 88.5784 11.5971C88.504 11.8092 88.4668 12.0463 88.4668 12.3086C88.4668 12.569 88.504 12.8052 88.5784 13.0173C88.6547 13.2294 88.7691 13.3986 88.9216 13.5251C89.076 13.6497 89.2694 13.7121 89.502 13.7121ZM93.4173 11.9263V14.4375H92.4072V10.1518H93.3726V10.88H93.4229C93.5214 10.6401 93.6786 10.4494 93.8944 10.308C94.112 10.1667 94.3808 10.096 94.7008 10.096C94.9965 10.096 95.2541 10.1592 95.4736 10.2857C95.695 10.4122 95.8661 10.5954 95.987 10.8354C96.1098 11.0753 96.1702 11.3664 96.1684 11.7087V14.4375H95.1583V11.865C95.1583 11.5785 95.0839 11.3544 94.9351 11.1925C94.7882 11.0307 94.5845 10.9498 94.3241 10.9498C94.1474 10.9498 93.9902 10.9888 93.8525 11.067C93.7167 11.1432 93.6098 11.2539 93.5317 11.399C93.4554 11.5441 93.4173 11.7199 93.4173 11.9263Z" fill="white"/>
<path d="M37.5714 25.6445C37.1417 25.6445 36.7595 25.5748 36.4247 25.4353C36.0917 25.2939 35.8304 25.1014 35.6406 24.8577C35.4509 24.614 35.356 24.3378 35.356 24.029C35.356 23.7909 35.41 23.5724 35.5179 23.3733C35.6276 23.1724 35.7764 23.006 35.9643 22.8739C36.1522 22.74 36.3624 22.6544 36.5949 22.6172V22.5781C36.2898 22.5167 36.0424 22.3689 35.8527 22.1345C35.6629 21.8983 35.5681 21.6239 35.5681 21.3114C35.5681 21.0156 35.6546 20.7524 35.8276 20.5218C36.0006 20.2892 36.2377 20.107 36.5391 19.9749C36.8423 19.841 37.1864 19.774 37.5714 19.774C37.9565 19.774 38.2997 19.841 38.601 19.9749C38.9042 20.1088 39.1423 20.292 39.3153 20.5246C39.4883 20.7552 39.5757 21.0175 39.5776 21.3114C39.5757 21.6257 39.479 21.9001 39.2874 22.1345C39.0958 22.3689 38.8503 22.5167 38.5508 22.5781V22.6172C38.7796 22.6544 38.987 22.74 39.173 22.8739C39.3609 23.006 39.5097 23.1724 39.6194 23.3733C39.731 23.5724 39.7878 23.7909 39.7896 24.029C39.7878 24.3378 39.692 24.614 39.5022 24.8577C39.3125 25.1014 39.0502 25.2939 38.7154 25.4353C38.3824 25.5748 38.0011 25.6445 37.5714 25.6445ZM37.5714 24.7573C37.763 24.7573 37.9304 24.7228 38.0737 24.654C38.2169 24.5833 38.3285 24.4866 38.4085 24.3638C38.4903 24.2392 38.5312 24.096 38.5312 23.9342C38.5312 23.7686 38.4894 23.6226 38.4057 23.4961C38.322 23.3677 38.2085 23.2673 38.0653 23.1948C37.9221 23.1203 37.7574 23.0831 37.5714 23.0831C37.3873 23.0831 37.2227 23.1203 37.0776 23.1948C36.9325 23.2673 36.8181 23.3677 36.7344 23.4961C36.6525 23.6226 36.6116 23.7686 36.6116 23.9342C36.6116 24.096 36.6516 24.2392 36.7316 24.3638C36.8116 24.4866 36.9241 24.5833 37.0692 24.654C37.2143 24.7228 37.3817 24.7573 37.5714 24.7573ZM37.5714 22.2042C37.7314 22.2042 37.8737 22.1717 37.9983 22.1066C38.123 22.0415 38.2206 21.9513 38.2913 21.8359C38.362 21.7206 38.3973 21.5876 38.3973 21.4369C38.3973 21.2881 38.362 21.1579 38.2913 21.0463C38.2206 20.9328 38.1239 20.8445 38.0011 20.7813C37.8783 20.7161 37.7351 20.6836 37.5714 20.6836C37.4096 20.6836 37.2664 20.7161 37.1417 20.7813C37.0171 20.8445 36.9195 20.9328 36.8488 21.0463C36.7799 21.1579 36.7455 21.2881 36.7455 21.4369C36.7455 21.5876 36.7809 21.7206 36.8516 21.8359C36.9222 21.9513 37.0199 22.0415 37.1445 22.1066C37.2692 22.1717 37.4115 22.2042 37.5714 22.2042ZM42.7019 19.774C42.9958 19.774 43.2785 19.8233 43.5501 19.9219C43.8235 20.0205 44.0672 20.1776 44.2811 20.3934C44.4969 20.6092 44.6671 20.8956 44.7917 21.2528C44.9182 21.6081 44.9824 22.0443 44.9842 22.5614C44.9842 23.0469 44.9294 23.4803 44.8196 23.8616C44.7117 24.2411 44.5564 24.5638 44.3537 24.8298C44.1509 25.0958 43.9063 25.2985 43.6198 25.4381C43.3334 25.5757 43.0134 25.6445 42.66 25.6445C42.2787 25.6445 41.942 25.5711 41.65 25.4241C41.3579 25.2753 41.1226 25.0735 40.9441 24.8186C40.7673 24.5619 40.6604 24.2736 40.6232 23.9537H41.8146C41.8611 24.162 41.9588 24.3238 42.1076 24.4392C42.2564 24.5526 42.4405 24.6094 42.66 24.6094C43.032 24.6094 43.3148 24.4475 43.5082 24.1239C43.7017 23.7984 43.7993 23.3529 43.8012 22.7874H43.7621C43.6766 22.9548 43.5612 23.099 43.4162 23.2199C43.2711 23.3389 43.1046 23.431 42.9167 23.4961C42.7307 23.5612 42.5326 23.5938 42.3224 23.5938C41.9857 23.5938 41.6853 23.5147 41.4212 23.3566C41.157 23.1985 40.9487 22.9808 40.7962 22.7037C40.6436 22.4265 40.5674 22.1103 40.5674 21.755C40.5655 21.3718 40.6539 21.0305 40.8324 20.731C41.011 20.4315 41.2603 20.1972 41.5802 20.0279C41.902 19.8568 42.2759 19.7721 42.7019 19.774ZM42.7102 20.7227C42.5224 20.7227 42.355 20.7673 42.208 20.8566C42.0629 20.9459 41.9476 21.0658 41.862 21.2165C41.7783 21.3672 41.7374 21.5355 41.7393 21.7215C41.7393 21.9094 41.7802 22.0787 41.862 22.2294C41.9457 22.3782 42.0592 22.4972 42.2024 22.5865C42.3475 22.6739 42.5131 22.7176 42.6991 22.7176C42.8386 22.7176 42.9679 22.6916 43.0869 22.6395C43.206 22.5874 43.3092 22.5158 43.3966 22.4247C43.4859 22.3317 43.5557 22.2247 43.6059 22.1038C43.6561 21.9829 43.6812 21.8545 43.6812 21.7188C43.6794 21.5383 43.6366 21.3728 43.5529 21.2221C43.4692 21.0714 43.3538 20.9505 43.2069 20.8594C43.0599 20.7682 42.8944 20.7227 42.7102 20.7227ZM47.953 25.6445C47.5233 25.6445 47.141 25.5748 46.8062 25.4353C46.4733 25.2939 46.2119 25.1014 46.0222 24.8577C45.8324 24.614 45.7376 24.3378 45.7376 24.029C45.7376 23.7909 45.7915 23.5724 45.8994 23.3733C46.0092 23.1724 46.158 23.006 46.3458 22.8739C46.5337 22.74 46.7439 22.6544 46.9764 22.6172V22.5781C46.6714 22.5167 46.424 22.3689 46.2342 22.1345C46.0445 21.8983 45.9496 21.6239 45.9496 21.3114C45.9496 21.0156 46.0361 20.7524 46.2091 20.5218C46.3821 20.2892 46.6193 20.107 46.9206 19.9749C47.2238 19.841 47.5679 19.774 47.953 19.774C48.338 19.774 48.6812 19.841 48.9826 19.9749C49.2858 20.1088 49.5239 20.292 49.6968 20.5246C49.8698 20.7552 49.9573 21.0175 49.9591 21.3114C49.9573 21.6257 49.8605 21.9001 49.6689 22.1345C49.4774 22.3689 49.2318 22.5167 48.9323 22.5781V22.6172C49.1611 22.6544 49.3685 22.74 49.5545 22.8739C49.7424 23.006 49.8912 23.1724 50.001 23.3733C50.1126 23.5724 50.1693 23.7909 50.1712 24.029C50.1693 24.3378 50.0735 24.614 49.8838 24.8577C49.6941 25.1014 49.4318 25.2939 49.097 25.4353C48.764 25.5748 48.3827 25.6445 47.953 25.6445ZM47.953 24.7573C48.1446 24.7573 48.312 24.7228 48.4552 24.654C48.5984 24.5833 48.7101 24.4866 48.79 24.3638C48.8719 24.2392 48.9128 24.096 48.9128 23.9342C48.9128 23.7686 48.871 23.6226 48.7872 23.4961C48.7035 23.3677 48.5901 23.2673 48.4468 23.1948C48.3036 23.1203 48.139 23.0831 47.953 23.0831C47.7688 23.0831 47.6042 23.1203 47.4591 23.1948C47.314 23.2673 47.1996 23.3677 47.1159 23.4961C47.0341 23.6226 46.9932 23.7686 46.9932 23.9342C46.9932 24.096 47.0332 24.2392 47.1131 24.3638C47.1931 24.4866 47.3057 24.5833 47.4508 24.654C47.5958 24.7228 47.7633 24.7573 47.953 24.7573ZM47.953 22.2042C48.113 22.2042 48.2553 22.1717 48.3799 22.1066C48.5045 22.0415 48.6022 21.9513 48.6729 21.8359C48.7435 21.7206 48.7789 21.5876 48.7789 21.4369C48.7789 21.2881 48.7435 21.1579 48.6729 21.0463C48.6022 20.9328 48.5054 20.8445 48.3827 20.7813C48.2599 20.7161 48.1167 20.6836 47.953 20.6836C47.7912 20.6836 47.6479 20.7161 47.5233 20.7813C47.3987 20.8445 47.301 20.9328 47.2303 21.0463C47.1615 21.1579 47.1271 21.2881 47.1271 21.4369C47.1271 21.5876 47.1624 21.7206 47.2331 21.8359C47.3038 21.9513 47.4015 22.0415 47.5261 22.1066C47.6507 22.1717 47.793 22.2042 47.953 22.2042ZM53.2564 25.692C52.7765 25.6901 52.3636 25.572 52.0176 25.3376C51.6735 25.1032 51.4084 24.7638 51.2224 24.3192C51.0382 23.8746 50.9471 23.3398 50.9489 22.7148C50.9489 22.0917 51.041 21.5606 51.2252 21.1217C51.4112 20.6827 51.6762 20.3488 52.0204 20.12C52.3664 19.8893 52.7784 19.774 53.2564 19.774C53.7345 19.774 54.1456 19.8893 54.4897 20.12C54.8357 20.3506 55.1017 20.6855 55.2877 21.1244C55.4737 21.5616 55.5658 22.0917 55.5639 22.7148C55.5639 23.3417 55.4709 23.8774 55.2849 24.322C55.1007 24.7666 54.8366 25.106 54.4925 25.3404C54.1483 25.5748 53.7363 25.692 53.2564 25.692ZM53.2564 24.6903C53.5838 24.6903 53.8451 24.5257 54.0405 24.1964C54.2358 23.8672 54.3325 23.3733 54.3306 22.7148C54.3306 22.2814 54.286 21.9206 54.1967 21.6323C54.1093 21.3439 53.9847 21.1272 53.8228 20.9821C53.6629 20.8371 53.4741 20.7645 53.2564 20.7645C52.9309 20.7645 52.6705 20.9273 52.4752 21.2528C52.2799 21.5783 52.1813 22.0657 52.1794 22.7148C52.1794 23.1538 52.2231 23.5203 52.3105 23.8142C52.3998 24.1062 52.5254 24.3257 52.6872 24.4727C52.8491 24.6177 53.0388 24.6903 53.2564 24.6903ZM58.4929 19.774C58.7868 19.774 59.0695 19.8233 59.3411 19.9219C59.6145 20.0205 59.8582 20.1776 60.0721 20.3934C60.2879 20.6092 60.4581 20.8956 60.5827 21.2528C60.7092 21.6081 60.7734 22.0443 60.7753 22.5614C60.7753 23.0469 60.7204 23.4803 60.6106 23.8616C60.5027 24.2411 60.3474 24.5638 60.1447 24.8298C59.9419 25.0958 59.6973 25.2985 59.4109 25.4381C59.1244 25.5757 58.8045 25.6445 58.451 25.6445C58.0697 25.6445 57.733 25.5711 57.441 25.4241C57.1489 25.2753 56.9136 25.0735 56.7351 24.8186C56.5584 24.5619 56.4514 24.2736 56.4142 23.9537H57.6056C57.6521 24.162 57.7498 24.3238 57.8986 24.4392C58.0474 24.5526 58.2315 24.6094 58.451 24.6094C58.8231 24.6094 59.1058 24.4475 59.2992 24.1239C59.4927 23.7984 59.5904 23.3529 59.5922 22.7874H59.5532C59.4676 22.9548 59.3523 23.099 59.2072 23.2199C59.0621 23.3389 58.8956 23.431 58.7077 23.4961C58.5217 23.5612 58.3236 23.5938 58.1134 23.5938C57.7767 23.5938 57.4763 23.5147 57.2122 23.3566C56.9481 23.1985 56.7397 22.9808 56.5872 22.7037C56.4347 22.4265 56.3584 22.1103 56.3584 21.755C56.3565 21.3718 56.4449 21.0305 56.6235 20.731C56.802 20.4315 57.0513 20.1972 57.3712 20.0279C57.693 19.8568 58.0669 19.7721 58.4929 19.774ZM58.5013 20.7227C58.3134 20.7227 58.146 20.7673 57.999 20.8566C57.8539 20.9459 57.7386 21.0658 57.653 21.2165C57.5693 21.3672 57.5284 21.5355 57.5303 21.7215C57.5303 21.9094 57.5712 22.0787 57.653 22.2294C57.7367 22.3782 57.8502 22.4972 57.9934 22.5865C58.1385 22.6739 58.3041 22.7176 58.4901 22.7176C58.6296 22.7176 58.7589 22.6916 58.8779 22.6395C58.997 22.5874 59.1002 22.5158 59.1876 22.4247C59.2769 22.3317 59.3467 22.2247 59.3969 22.1038C59.4471 21.9829 59.4722 21.8545 59.4722 21.7188C59.4704 21.5383 59.4276 21.3728 59.3439 21.2221C59.2602 21.0714 59.1449 20.9505 58.9979 20.8594C58.851 20.7682 58.6854 20.7227 58.5013 20.7227ZM64.2937 22.2377V23.1808H61.6876V22.2377H64.2937ZM67.7814 19.8521V25.5664H66.5732V20.9989H66.5398L65.2312 21.8192V20.7478L66.6458 19.8521H67.7814ZM69.1395 25.5664V24.6959L71.1735 22.8125C71.3465 22.6451 71.4916 22.4944 71.6088 22.3605C71.7279 22.2266 71.8181 22.0954 71.8795 21.9671C71.9408 21.8369 71.9715 21.6964 71.9715 21.5458C71.9715 21.3783 71.9334 21.2342 71.8571 21.1133C71.7809 20.9905 71.6767 20.8966 71.5446 20.8315C71.4126 20.7645 71.2628 20.731 71.0954 20.731C70.9206 20.731 70.768 20.7664 70.6378 20.8371C70.5076 20.9077 70.4072 21.0091 70.3365 21.1412C70.2658 21.2733 70.2305 21.4304 70.2305 21.6127H69.0837C69.0837 21.2388 69.1683 20.9142 69.3376 20.639C69.5069 20.3637 69.744 20.1507 70.0491 20C70.3542 19.8493 70.7057 19.774 71.1038 19.774C71.513 19.774 71.8692 19.8465 72.1724 19.9916C72.4775 20.1349 72.7147 20.3339 72.8839 20.5887C73.0532 20.8436 73.1378 21.1356 73.1378 21.4648C73.1378 21.6806 73.0951 21.8936 73.0095 22.1038C72.9258 22.314 72.776 22.5474 72.5603 22.8041C72.3445 23.059 72.0404 23.365 71.6479 23.7221L70.8136 24.5396V24.5787H73.2132V25.5664H69.1395ZM76.2008 25.6445C75.7841 25.6445 75.413 25.5729 75.0875 25.4297C74.7638 25.2846 74.508 25.0856 74.3202 24.8326C74.1342 24.5778 74.0384 24.2839 74.0328 23.9509H75.2493C75.2567 24.0904 75.3023 24.2132 75.386 24.3192C75.4716 24.4234 75.5851 24.5043 75.7264 24.5619C75.8678 24.6196 76.0268 24.6484 76.2035 24.6484C76.3877 24.6484 76.5505 24.6159 76.6918 24.5508C76.8332 24.4857 76.9439 24.3955 77.0239 24.2801C77.1038 24.1648 77.1438 24.0318 77.1438 23.8811C77.1438 23.7286 77.101 23.5938 77.0155 23.4766C76.9318 23.3575 76.8109 23.2645 76.6528 23.1975C76.4965 23.1306 76.3105 23.0971 76.0947 23.0971H75.5618V22.2098H76.0947C76.277 22.2098 76.4379 22.1782 76.5774 22.115C76.7188 22.0517 76.8285 21.9643 76.9067 21.8527C76.9848 21.7392 77.0239 21.6071 77.0239 21.4565C77.0239 21.3132 76.9894 21.1877 76.9206 21.0798C76.8537 20.9701 76.7588 20.8845 76.636 20.8231C76.5151 20.7617 76.3737 20.731 76.2119 20.731C76.0482 20.731 75.8985 20.7608 75.7627 20.8203C75.6269 20.878 75.5181 20.9608 75.4362 21.0686C75.3544 21.1765 75.3107 21.303 75.3051 21.4481H74.1472C74.1528 21.1189 74.2467 20.8287 74.429 20.5776C74.6113 20.3265 74.8568 20.1302 75.1656 19.9888C75.4762 19.8456 75.8269 19.774 76.2175 19.774C76.6118 19.774 76.9569 19.8456 77.2526 19.9888C77.5484 20.1321 77.7781 20.3255 77.9418 20.5692C78.1074 20.811 78.1892 21.0826 78.1874 21.3839C78.1892 21.7039 78.0897 21.9708 77.8888 22.1847C77.6898 22.3986 77.4303 22.5344 77.1103 22.5921V22.6367C77.5307 22.6907 77.8507 22.8367 78.0702 23.0748C78.2915 23.311 78.4013 23.6068 78.3994 23.9621C78.4013 24.2876 78.3073 24.5768 78.1176 24.8298C77.9297 25.0828 77.6702 25.2818 77.3391 25.4269C77.008 25.572 76.6286 25.6445 76.2008 25.6445ZM79.1814 24.5619V23.6105L81.567 19.8521H82.3873V21.1691H81.9018L80.3979 23.5491V23.5938H83.7879V24.5619H79.1814ZM81.9241 25.5664V24.2718L81.9464 23.8504V19.8521H83.0792V25.5664H81.9241ZM86.68 25.6445C86.2856 25.6445 85.9341 25.572 85.6253 25.4269C85.3184 25.2818 85.0747 25.0818 84.8943 24.827C84.7138 24.5722 84.6199 24.2801 84.6124 23.9509H85.7843C85.7973 24.1722 85.8903 24.3517 86.0633 24.4894C86.2363 24.627 86.4419 24.6959 86.68 24.6959C86.8697 24.6959 87.0371 24.654 87.1822 24.5703C87.3291 24.4847 87.4435 24.3666 87.5254 24.216C87.6091 24.0634 87.6509 23.8886 87.6509 23.6914C87.6509 23.4905 87.6082 23.3138 87.5226 23.1613C87.4389 23.0087 87.3226 22.8897 87.1738 22.8041C87.025 22.7186 86.8548 22.6749 86.6632 22.673C86.4958 22.673 86.3331 22.7074 86.1749 22.7762C86.0187 22.8451 85.8969 22.939 85.8094 23.058L84.7352 22.8655L85.0059 19.8521H88.4992V20.8398H86.002L85.8541 22.2712H85.8876C85.988 22.1298 86.1396 22.0126 86.3424 21.9196C86.5451 21.8266 86.772 21.7801 87.0232 21.7801C87.3673 21.7801 87.6742 21.861 87.9439 22.0229C88.2136 22.1847 88.4266 22.407 88.5829 22.6897C88.7391 22.9706 88.8163 23.2943 88.8145 23.6607C88.8163 24.0458 88.727 24.388 88.5466 24.6875C88.368 24.9851 88.1178 25.2195 87.796 25.3906C87.4761 25.5599 87.1041 25.6445 86.68 25.6445Z" fill="white"/>
</svg>
