<svg width="24" height="24" viewBox="0 0 24 24" fill="none" xmlns="http://www.w3.org/2000/svg">
<path d="M12.9252 3C13.9377 3.0027 14.4515 3.0081 14.8952 3.0207L15.0698 3.027C15.2714 3.0342 15.4703 3.0432 15.7106 3.054C16.6681 3.099 17.3215 3.25019 17.8948 3.47249C18.4887 3.70108 18.9891 4.01068 19.4895 4.51016C19.9473 4.95991 20.3014 5.50416 20.5271 6.10492C20.7494 6.67821 20.9006 7.33159 20.9456 8.29007C20.9564 8.52947 20.9654 8.72836 20.9726 8.93086L20.978 9.10545C20.9915 9.54824 20.9969 10.0621 20.9987 11.0746L20.9996 11.746V12.925C21.0018 13.5814 20.9949 14.2379 20.9789 14.8941L20.9735 15.0687C20.9663 15.2712 20.9573 15.4701 20.9465 15.7095C20.9015 16.668 20.7485 17.3205 20.5271 17.8946C20.3014 18.4954 19.9473 19.0397 19.4895 19.4894C19.0397 19.9472 18.4955 20.3013 17.8948 20.5271C17.3215 20.7494 16.6681 20.9006 15.7106 20.9456L15.0698 20.9726L14.8952 20.978C14.4515 20.9906 13.9377 20.9969 12.9252 20.9987L12.2538 20.9996H11.0758C10.4191 21.0019 9.76234 20.995 9.1058 20.9789L8.93121 20.9735C8.71757 20.9654 8.50398 20.9561 8.29044 20.9456C7.33289 20.9006 6.67953 20.7494 6.10536 20.5271C5.50493 20.3012 4.96101 19.9471 4.51154 19.4894C4.05341 19.0397 3.69897 18.4955 3.47299 17.8946C3.2507 17.3214 3.09951 16.668 3.05451 15.7095L3.02751 15.0687L3.02301 14.8941C3.00642 14.2379 2.99892 13.5814 3.00051 12.925V11.0746C2.99802 10.4182 3.00462 9.76171 3.02031 9.10545L3.02661 8.93086C3.03381 8.72836 3.04281 8.52947 3.05361 8.29007C3.09861 7.33159 3.2498 6.67911 3.47209 6.10492C3.6986 5.50392 4.05366 4.95965 4.51244 4.51016C4.96165 4.05257 5.50525 3.69845 6.10536 3.47249C6.67953 3.25019 7.33199 3.099 8.29044 3.054C8.52983 3.0432 8.72962 3.0342 8.93121 3.027L9.1058 3.0216C9.76204 3.00561 10.4185 2.99871 11.0749 3.0009L12.9252 3ZM12.0001 7.49989C10.8066 7.49989 9.66211 7.97399 8.81824 8.81788C7.97437 9.66177 7.50029 10.8063 7.50029 11.9998C7.50029 13.1932 7.97437 14.3378 8.81824 15.1817C9.66211 16.0256 10.8066 16.4997 12.0001 16.4997C13.1935 16.4997 14.338 16.0256 15.1819 15.1817C16.0257 14.3378 16.4998 13.1932 16.4998 11.9998C16.4998 10.8063 16.0257 9.66177 15.1819 8.81788C14.338 7.97399 13.1935 7.49989 12.0001 7.49989ZM12.0001 9.29985C12.3546 9.29979 12.7057 9.36957 13.0333 9.5052C13.3609 9.64083 13.6585 9.83965 13.9093 10.0903C14.16 10.341 14.3589 10.6386 14.4947 10.9661C14.6304 11.2937 14.7003 11.6448 14.7004 11.9993C14.7004 12.3539 14.6307 12.705 14.495 13.0326C14.3594 13.3602 14.1606 13.6579 13.9099 13.9086C13.6593 14.1594 13.3617 14.3583 13.0341 14.494C12.7066 14.6298 12.3555 14.6997 12.001 14.6997C11.2849 14.6997 10.5982 14.4153 10.0919 13.9089C9.58554 13.4026 9.30109 12.7158 9.30109 11.9998C9.30109 11.2837 9.58554 10.597 10.0919 10.0906C10.5982 9.5843 11.2849 9.29985 12.001 9.29985M16.7257 6.14992C16.4274 6.14992 16.1412 6.26845 15.9303 6.47942C15.7193 6.69039 15.6008 6.97654 15.6008 7.2749C15.6008 7.57326 15.7193 7.8594 15.9303 8.07037C16.1412 8.28135 16.4274 8.39987 16.7257 8.39987C17.0241 8.39987 17.3102 8.28135 17.5212 8.07037C17.7321 7.8594 17.8507 7.57326 17.8507 7.2749C17.8507 6.97654 17.7321 6.69039 17.5212 6.47942C17.3102 6.26845 17.0241 6.14992 16.7257 6.14992Z" fill="#F8F8F8"/>
</svg>
