<svg width="111" height="34" viewBox="0 0 111 34" fill="none" xmlns="http://www.w3.org/2000/svg">
<rect x="0.5" width="110" height="34" rx="3.92857" fill="#090909"/>
<g clip-path="url(#clip0_4972_541)">
<mask id="mask0_4972_541" style="mask-type:luminance" maskUnits="userSpaceOnUse" x="19" y="7" width="19" height="20">
<path d="M19.3906 17.0091C19.3906 22.0717 23.4947 26.1758 28.5573 26.1758C33.62 26.1758 37.724 22.0717 37.724 17.0091C37.724 11.9464 33.62 7.84241 28.5573 7.84241C23.4947 7.84241 19.3906 11.9464 19.3906 17.0091Z" fill="white"/>
</mask>
<g mask="url(#mask0_4972_541)">
<path d="M19.3906 17.0091C19.3906 22.0717 23.4947 26.1758 28.5573 26.1758C33.62 26.1758 37.724 22.0717 37.724 17.0091C37.724 11.9464 33.62 7.84241 28.5573 7.84241C23.4947 7.84241 19.3906 11.9464 19.3906 17.0091Z" fill="url(#paint0_linear_4972_541)"/>
</g>
<mask id="mask1_4972_541" style="mask-type:luminance" maskUnits="userSpaceOnUse" x="18" y="6" width="21" height="22">
<path d="M18.1543 6.61342H38.8949V27.2695H18.1543V6.61342Z" fill="white"/>
</mask>
<g mask="url(#mask1_4972_541)">
<path d="M25.5938 17.6809L26.6813 20.6911C26.6813 20.6911 26.8173 20.9727 26.9629 20.9727C27.1086 20.9727 29.274 18.7198 29.274 18.7198L31.6822 14.0685L25.6326 16.904L25.5938 17.6809Z" fill="#C8DAEA"/>
</g>
<mask id="mask2_4972_541" style="mask-type:luminance" maskUnits="userSpaceOnUse" x="18" y="6" width="21" height="22">
<path d="M18.1543 6.61342H38.8949V27.2695H18.1543V6.61342Z" fill="white"/>
</mask>
<g mask="url(#mask2_4972_541)">
<path d="M27.0367 18.4517L26.8279 20.6706C26.8279 20.6706 26.7405 21.3503 27.4202 20.6706C28.0999 19.9908 28.7505 19.4665 28.7505 19.4665" fill="#A9C6D8"/>
</g>
<mask id="mask3_4972_541" style="mask-type:luminance" maskUnits="userSpaceOnUse" x="18" y="6" width="21" height="22">
<path d="M18.1543 6.61342H38.8949V27.2695H18.1543V6.61342Z" fill="white"/>
</mask>
<g mask="url(#mask3_4972_541)">
<path d="M25.6129 17.791L23.376 17.0621C23.376 17.0621 23.109 16.9538 23.1947 16.7077C23.2124 16.657 23.2481 16.6139 23.3549 16.5394C23.8507 16.1939 32.5297 13.0744 32.5297 13.0744C32.5297 13.0744 32.7748 12.9919 32.9196 13.0467C32.9858 13.0718 33.0281 13.1002 33.0637 13.2037C33.0766 13.2413 33.0841 13.3214 33.0831 13.4011C33.0823 13.4586 33.0753 13.5118 33.0702 13.5953C33.0174 14.4483 31.4357 20.8136 31.4357 20.8136C31.4357 20.8136 31.3411 21.186 31.002 21.1987C30.8783 21.2034 30.7283 21.1783 30.5488 21.0239C29.8834 20.4515 27.5835 18.9059 27.0753 18.566C27.0466 18.5469 27.0385 18.522 27.0336 18.4976C27.0265 18.4619 27.0647 18.4173 27.0647 18.4173C27.0647 18.4173 31.0694 14.8575 31.176 14.484C31.1843 14.455 31.1533 14.4407 31.1112 14.4532C30.8452 14.5511 26.2342 17.4627 25.7254 17.7843C25.6957 17.8031 25.6122 17.791 25.6122 17.791" fill="white"/>
</g>
</g>
<path d="M44.0299 17.5419V16.3849H50.1088V17.5419H47.7539V24.0039H46.3849V17.5419H44.0299ZM52.9222 24.1155C52.3493 24.1155 51.8545 23.9965 51.4379 23.7584C51.0237 23.5178 50.705 23.178 50.4818 22.739C50.2586 22.2976 50.1469 21.778 50.1469 21.1802C50.1469 20.5924 50.2586 20.0766 50.4818 19.6326C50.7075 19.1862 51.0224 18.839 51.4267 18.591C51.831 18.3405 52.3059 18.2152 52.8516 18.2152C53.2037 18.2152 53.5361 18.2723 53.8486 18.3863C54.1636 18.498 54.4413 18.6716 54.6819 18.9072C54.925 19.1428 55.1159 19.4429 55.2548 19.8075C55.3937 20.1696 55.4632 20.6011 55.4632 21.1021V21.5151H50.7794V20.6073H54.1722C54.1698 20.3494 54.114 20.12 54.0048 19.9191C53.8957 19.7157 53.7432 19.5557 53.5472 19.4392C53.3538 19.3226 53.1281 19.2643 52.8702 19.2643C52.5949 19.2643 52.3531 19.3313 52.1447 19.4652C51.9364 19.5967 51.7739 19.7703 51.6574 19.986C51.5433 20.1993 51.485 20.4337 51.4825 20.6892V21.4816C51.4825 21.8139 51.5433 22.0991 51.6648 22.3372C51.7863 22.5729 51.9562 22.7539 52.1745 22.8804C52.3927 23.0044 52.6482 23.0664 52.9408 23.0664C53.1368 23.0664 53.3141 23.0391 53.4728 22.9846C53.6316 22.9275 53.7692 22.8444 53.8858 22.7353C54.0024 22.6262 54.0904 22.491 54.1499 22.3298L55.4074 22.4712C55.328 22.8035 55.1767 23.0937 54.9535 23.3417C54.7328 23.5872 54.45 23.7782 54.1053 23.9146C53.7605 24.0485 53.3662 24.1155 52.9222 24.1155ZM57.9492 16.3849V24.0039H56.6025V16.3849H57.9492ZM61.8638 24.1155C61.2909 24.1155 60.7961 23.9965 60.3795 23.7584C59.9653 23.5178 59.6466 23.178 59.4234 22.739C59.2001 22.2976 59.0885 21.778 59.0885 21.1802C59.0885 20.5924 59.2001 20.0766 59.4234 19.6326C59.6491 19.1862 59.964 18.839 60.3683 18.591C60.7726 18.3405 61.2475 18.2152 61.7932 18.2152C62.1453 18.2152 62.4777 18.2723 62.7902 18.3863C63.1052 18.498 63.3829 18.6716 63.6235 18.9072C63.8666 19.1428 64.0575 19.4429 64.1964 19.8075C64.3353 20.1696 64.4048 20.6011 64.4048 21.1021V21.5151H59.721V20.6073H63.1138C63.1114 20.3494 63.0556 20.12 62.9464 19.9191C62.8373 19.7157 62.6848 19.5557 62.4888 19.4392C62.2954 19.3226 62.0697 19.2643 61.8118 19.2643C61.5365 19.2643 61.2946 19.3313 61.0863 19.4652C60.878 19.5967 60.7155 19.7703 60.599 19.986C60.4849 20.1993 60.4266 20.4337 60.4241 20.6892V21.4816C60.4241 21.8139 60.4849 22.0991 60.6064 22.3372C60.7279 22.5729 60.8978 22.7539 61.1161 22.8804C61.3343 23.0044 61.5898 23.0664 61.8824 23.0664C62.0784 23.0664 62.2557 23.0391 62.4144 22.9846C62.5732 22.9275 62.7108 22.8444 62.8274 22.7353C62.9439 22.6262 63.032 22.491 63.0915 22.3298L64.349 22.4712C64.2696 22.8035 64.1183 23.0937 63.8951 23.3417C63.6744 23.5872 63.3916 23.7782 63.0469 23.9146C62.7021 24.0485 62.3078 24.1155 61.8638 24.1155ZM68.0292 26.2658C67.5456 26.2658 67.1301 26.2001 66.7829 26.0686C66.4357 25.9397 66.1567 25.7661 65.9459 25.5478C65.7351 25.3296 65.5887 25.0877 65.5069 24.8224L66.7197 24.5285C66.7742 24.6401 66.8536 24.7504 66.9578 24.8596C67.0619 24.9712 67.2021 25.0629 67.3782 25.1349C67.5567 25.2093 67.7812 25.2465 68.0515 25.2465C68.4335 25.2465 68.7497 25.1535 69.0002 24.9674C69.2507 24.7839 69.3759 24.4813 69.3759 24.0597V22.9771H69.309C69.2395 23.116 69.1378 23.2586 69.0039 23.4049C68.8725 23.5513 68.6976 23.674 68.4794 23.7733C68.2636 23.8725 67.992 23.9221 67.6646 23.9221C67.2256 23.9221 66.8276 23.8191 66.4704 23.6133C66.1158 23.4049 65.833 23.0949 65.6222 22.6832C65.4139 22.269 65.3097 21.7507 65.3097 21.1282C65.3097 20.5007 65.4139 19.9712 65.6222 19.5396C65.833 19.1056 66.117 18.777 66.4741 18.5538C66.8313 18.3281 67.2294 18.2152 67.6683 18.2152C68.0032 18.2152 68.2785 18.2723 68.4942 18.3863C68.7125 18.498 68.8861 18.6331 69.0151 18.7919C69.144 18.9481 69.242 19.0957 69.309 19.2346H69.3834V18.2896H70.7115V24.0969C70.7115 24.5855 70.5949 24.9898 70.3618 25.3097C70.1287 25.6297 69.81 25.869 69.4057 26.0277C69.0014 26.1864 68.5426 26.2658 68.0292 26.2658ZM68.0404 22.8655C68.3256 22.8655 68.5686 22.7961 68.7695 22.6572C68.9704 22.5183 69.123 22.3186 69.2271 22.0582C69.3313 21.7978 69.3834 21.4853 69.3834 21.1207C69.3834 20.7611 69.3313 20.4461 69.2271 20.1758C69.1254 19.9054 68.9741 19.6959 68.7733 19.5471C68.5748 19.3958 68.3305 19.3201 68.0404 19.3201C67.7403 19.3201 67.4898 19.3983 67.2889 19.5545C67.088 19.7108 66.9367 19.9253 66.835 20.1981C66.7333 20.4684 66.6825 20.776 66.6825 21.1207C66.6825 21.4704 66.7333 21.7767 66.835 22.0396C66.9392 22.3 67.0917 22.5034 67.2926 22.6497C67.496 22.7936 67.7452 22.8655 68.0404 22.8655ZM72.0917 24.0039V18.2896H73.3975V19.242H73.457C73.5612 18.9121 73.7398 18.6579 73.9927 18.4794C74.2482 18.2983 74.5396 18.2078 74.867 18.2078C74.9414 18.2078 75.0245 18.2115 75.1163 18.2189C75.2105 18.2239 75.2886 18.2326 75.3506 18.245V19.4838C75.2936 19.464 75.2031 19.4466 75.0791 19.4317C74.9575 19.4144 74.8397 19.4057 74.7256 19.4057C74.4801 19.4057 74.2594 19.459 74.0634 19.5657C73.87 19.6698 73.7174 19.8149 73.6058 20.0009C73.4942 20.1869 73.4384 20.4015 73.4384 20.6445V24.0039H72.0917ZM77.7874 24.1192C77.4253 24.1192 77.0991 24.0547 76.809 23.9258C76.5213 23.7943 76.2931 23.6009 76.1244 23.3454C75.9583 23.09 75.8752 22.775 75.8752 22.4005C75.8752 22.0781 75.9347 21.8114 76.0538 21.6006C76.1728 21.3898 76.3353 21.2212 76.5411 21.0947C76.747 20.9682 76.9789 20.8727 77.2368 20.8082C77.4972 20.7413 77.7663 20.6929 78.0441 20.6631C78.3789 20.6284 78.6505 20.5974 78.8588 20.5701C79.0671 20.5404 79.2184 20.4957 79.3127 20.4362C79.4094 20.3742 79.4578 20.2787 79.4578 20.1497V20.1274C79.4578 19.8472 79.3747 19.6301 79.2085 19.4764C79.0423 19.3226 78.803 19.2457 78.4905 19.2457C78.1606 19.2457 77.899 19.3176 77.7055 19.4615C77.5146 19.6053 77.3856 19.7752 77.3186 19.9712L76.0612 19.7926C76.1604 19.4454 76.3241 19.1552 76.5523 18.9221C76.7804 18.6864 77.0595 18.5104 77.3893 18.3938C77.7192 18.2747 78.0838 18.2152 78.4831 18.2152C78.7584 18.2152 79.0324 18.2475 79.3052 18.3119C79.5781 18.3764 79.8273 18.4831 80.053 18.6319C80.2787 18.7782 80.4598 18.9779 80.5962 19.2308C80.7351 19.4838 80.8045 19.8 80.8045 20.1795V24.0039H79.5099V23.2189H79.4652C79.3834 23.3777 79.268 23.5265 79.1192 23.6654C78.9729 23.8018 78.7881 23.9121 78.5649 23.9965C78.3442 24.0783 78.085 24.1192 77.7874 24.1192ZM78.1371 23.1297C78.4074 23.1297 78.6418 23.0763 78.8402 22.9697C79.0386 22.8606 79.1912 22.7167 79.2978 22.5381C79.4069 22.3596 79.4615 22.1649 79.4615 21.9541V21.2807C79.4193 21.3154 79.3474 21.3477 79.2457 21.3774C79.1465 21.4072 79.0349 21.4332 78.9109 21.4555C78.7869 21.4779 78.6641 21.4977 78.5426 21.5151C78.4211 21.5324 78.3157 21.5473 78.2264 21.5597C78.0255 21.587 77.8457 21.6316 77.6869 21.6936C77.5282 21.7556 77.403 21.8424 77.3112 21.9541C77.2194 22.0632 77.1735 22.2046 77.1735 22.3782C77.1735 22.6262 77.2641 22.8134 77.4451 22.9399C77.6262 23.0664 77.8568 23.1297 78.1371 23.1297ZM82.1587 24.0039V18.2896H83.4459V19.2606H83.5128C83.6319 18.9332 83.8291 18.6778 84.1044 18.4942C84.3796 18.3082 84.7083 18.2152 85.0902 18.2152C85.4771 18.2152 85.8033 18.3095 86.0686 18.498C86.3365 18.684 86.525 18.9382 86.6341 19.2606H86.6936C86.8201 18.9431 87.0334 18.6902 87.3335 18.5017C87.6361 18.3107 87.9945 18.2152 88.4087 18.2152C88.9345 18.2152 89.3635 18.3814 89.6959 18.7137C90.0282 19.0461 90.1944 19.5309 90.1944 20.1683V24.0039H88.8439V20.3767C88.8439 20.022 88.7497 19.7628 88.5612 19.5991C88.3727 19.433 88.142 19.3499 87.8692 19.3499C87.5443 19.3499 87.2901 19.4516 87.1066 19.6549C86.9255 19.8558 86.835 20.1175 86.835 20.4399V24.0039H85.5143V20.3209C85.5143 20.0257 85.425 19.7901 85.2465 19.614C85.0704 19.4379 84.8397 19.3499 84.5545 19.3499C84.361 19.3499 84.185 19.3995 84.0262 19.4987C83.8675 19.5954 83.741 19.7331 83.6468 19.9116C83.5525 20.0877 83.5054 20.2936 83.5054 20.5292V24.0039H82.1587Z" fill="#F5F5F5"/>
<path d="M45.3074 8.2381H46.163V11.5863C46.1615 11.8932 46.0964 12.1575 45.9677 12.3792C45.8391 12.5993 45.6593 12.769 45.4283 12.8884C45.1989 13.0062 44.9315 13.0651 44.6261 13.0651C44.3471 13.0651 44.096 13.0155 43.8728 12.9163C43.6511 12.8155 43.4752 12.6667 43.345 12.4699C43.2148 12.273 43.1496 12.0281 43.1496 11.7351H44.0076C44.0092 11.8638 44.0371 11.9746 44.0913 12.0676C44.1471 12.1606 44.2239 12.2319 44.3215 12.2815C44.4192 12.3311 44.5316 12.3559 44.6587 12.3559C44.7966 12.3559 44.9137 12.3273 45.0098 12.2699C45.1059 12.211 45.1787 12.1242 45.2283 12.0095C45.2795 11.8948 45.3058 11.7537 45.3074 11.5863V8.2381ZM48.6196 13.0698C48.2708 13.0698 47.9685 12.993 47.7128 12.8396C47.457 12.6861 47.2586 12.4714 47.1175 12.1955C46.978 11.9196 46.9082 11.5972 46.9082 11.2282C46.9082 10.8593 46.978 10.5361 47.1175 10.2586C47.2586 9.98118 47.457 9.76572 47.7128 9.61226C47.9685 9.4588 48.2708 9.38207 48.6196 9.38207C48.9683 9.38207 49.2706 9.4588 49.5264 9.61226C49.7821 9.76572 49.9798 9.98118 50.1193 10.2586C50.2603 10.5361 50.3309 10.8593 50.3309 11.2282C50.3309 11.5972 50.2603 11.9196 50.1193 12.1955C49.9798 12.4714 49.7821 12.6861 49.5264 12.8396C49.2706 12.993 48.9683 13.0698 48.6196 13.0698ZM48.6242 12.3955C48.8133 12.3955 48.9714 12.3435 49.0985 12.2397C49.2256 12.1343 49.3202 11.9932 49.3822 11.8165C49.4458 11.6398 49.4775 11.4429 49.4775 11.2259C49.4775 11.0073 49.4458 10.8097 49.3822 10.633C49.3202 10.4547 49.2256 10.3129 49.0985 10.2075C48.9714 10.1021 48.8133 10.0494 48.6242 10.0494C48.4304 10.0494 48.2692 10.1021 48.1406 10.2075C48.0135 10.3129 47.9181 10.4547 47.8546 10.633C47.7926 10.8097 47.7616 11.0073 47.7616 11.2259C47.7616 11.4429 47.7926 11.6398 47.8546 11.8165C47.9181 11.9932 48.0135 12.1343 48.1406 12.2397C48.2692 12.3435 48.4304 12.3955 48.6242 12.3955ZM51.0453 13V9.42857H51.887V13H51.0453ZM51.4684 8.92169C51.3351 8.92169 51.2204 8.87751 51.1243 8.78916C51.0282 8.69925 50.9802 8.59152 50.9802 8.46596C50.9802 8.33885 51.0282 8.23112 51.1243 8.14276C51.2204 8.05286 51.3351 8.00791 51.4684 8.00791C51.6033 8.00791 51.718 8.05286 51.8126 8.14276C51.9087 8.23112 51.9567 8.33885 51.9567 8.46596C51.9567 8.59152 51.9087 8.69925 51.8126 8.78916C51.718 8.87751 51.6033 8.92169 51.4684 8.92169ZM53.5942 10.9074V13H52.7525V9.42857H53.557V10.0354H53.5989C53.681 9.83547 53.812 9.67659 53.9918 9.55878C54.1732 9.44097 54.3972 9.38207 54.6638 9.38207C54.9102 9.38207 55.1249 9.43477 55.3078 9.54018C55.4923 9.64559 55.6349 9.79827 55.7357 9.99823C55.838 10.1982 55.8884 10.4408 55.8868 10.726V13H55.0451V10.8562C55.0451 10.6175 54.9831 10.4307 54.8591 10.2959C54.7366 10.161 54.5669 10.0936 54.3499 10.0936C54.2026 10.0936 54.0716 10.1261 53.9569 10.1912C53.8438 10.2548 53.7546 10.347 53.6895 10.4679C53.626 10.5888 53.5942 10.7353 53.5942 10.9074ZM62.6588 10.619C62.6588 11.1321 62.5627 11.5716 62.3705 11.9374C62.1798 12.3017 61.9194 12.5807 61.5892 12.7745C61.2606 12.9682 60.8878 13.0651 60.4708 13.0651C60.0539 13.0651 59.6803 12.9682 59.3501 12.7745C59.0215 12.5791 58.7611 12.2994 58.5689 11.9351C58.3782 11.5693 58.2829 11.1306 58.2829 10.619C58.2829 10.106 58.3782 9.66729 58.5689 9.30301C58.7611 8.93719 59.0215 8.6574 59.3501 8.46363C59.6803 8.26987 60.0539 8.17299 60.4708 8.17299C60.8878 8.17299 61.2606 8.26987 61.5892 8.46363C61.9194 8.6574 62.1798 8.93719 62.3705 9.30301C62.5627 9.66729 62.6588 10.106 62.6588 10.619ZM61.7915 10.619C61.7915 10.2579 61.7349 9.95328 61.6218 9.70526C61.5102 9.4557 61.3552 9.26736 61.1568 9.14025C60.9583 9.0116 60.7297 8.94727 60.4708 8.94727C60.212 8.94727 59.9833 9.0116 59.7849 9.14025C59.5865 9.26736 59.4307 9.4557 59.3176 9.70526C59.206 9.95328 59.1502 10.2579 59.1502 10.619C59.1502 10.9802 59.206 11.2856 59.3176 11.5352C59.4307 11.7832 59.5865 11.9715 59.7849 12.1002C59.9833 12.2273 60.212 12.2908 60.4708 12.2908C60.7297 12.2908 60.9583 12.2273 61.1568 12.1002C61.3552 11.9715 61.5102 11.7832 61.6218 11.5352C61.7349 11.2856 61.7915 10.9802 61.7915 10.619ZM65.7135 11.498V9.42857H66.5552V13H65.739V12.3652H65.7018C65.6212 12.5652 65.4887 12.7287 65.3042 12.8558C65.1213 12.9829 64.8958 13.0465 64.6276 13.0465C64.3936 13.0465 64.1866 12.9946 64.0068 12.8907C63.8285 12.7853 63.689 12.6326 63.5883 12.4327C63.4875 12.2312 63.4371 11.9878 63.4371 11.7026V9.42857H64.2789V11.5724C64.2789 11.7987 64.3409 11.9785 64.4649 12.1118C64.5889 12.2451 64.7516 12.3118 64.9531 12.3118C65.0772 12.3118 65.1973 12.2815 65.3135 12.2211C65.4298 12.1606 65.5251 12.0707 65.5995 11.9514C65.6755 11.8305 65.7135 11.6793 65.7135 11.498ZM67.4207 13V9.42857H68.2368V10.0238H68.274C68.3391 9.81765 68.4508 9.65876 68.6089 9.54715C68.7685 9.434 68.9507 9.37742 69.1553 9.37742C69.2018 9.37742 69.2537 9.37974 69.3111 9.38439C69.37 9.38749 69.4188 9.39292 69.4575 9.40067V10.1749C69.4219 10.1625 69.3653 10.1517 69.2878 10.1424C69.2118 10.1315 69.1382 10.1261 69.0669 10.1261C68.9135 10.1261 68.7755 10.1594 68.653 10.2261C68.5321 10.2912 68.4368 10.3819 68.367 10.4981C68.2973 10.6144 68.2624 10.7485 68.2624 10.9004V13H67.4207Z" fill="#F5F5F5"/>
<defs>
<linearGradient id="paint0_linear_4972_541" x1="28.5573" y1="26.1757" x2="28.5573" y2="7.84233" gradientUnits="userSpaceOnUse">
<stop stop-color="#1D93D2"/>
<stop offset="1" stop-color="#38B0E3"/>
</linearGradient>
<clipPath id="clip0_4972_541">
<rect width="18.3333" height="18.3333" fill="white" transform="translate(19.3867 7.83203)"/>
</clipPath>
</defs>
</svg>
