<svg width="111" height="34" viewBox="0 0 111 34" fill="none" xmlns="http://www.w3.org/2000/svg">
<rect x="0.5" width="110" height="34" rx="4" fill="#090909"/>
<path d="M24.4049 22.2967L24.6388 22.435C25.621 23.0168 26.7471 23.3245 27.8956 23.325H27.898C31.4248 23.325 34.2951 20.4609 34.2966 16.9406C34.2972 15.2347 33.6323 13.6305 32.4242 12.4237C31.8317 11.8286 31.1267 11.3567 30.3503 11.0353C29.5738 10.714 28.7411 10.5495 27.9005 10.5515C24.3709 10.5515 21.5005 13.4153 21.4993 16.9354C21.4975 18.1375 21.8367 19.3154 22.4775 20.3331L22.6297 20.5746L21.9832 22.9304L24.4049 22.2967ZM20.1348 24.7554L21.227 20.7751C20.5534 19.6103 20.199 18.2888 20.1994 16.9349C20.2012 12.6996 23.6545 9.25391 27.8981 9.25391C29.9574 9.25495 31.8903 10.0548 33.3439 11.5067C34.7976 12.9586 35.5974 14.8886 35.5967 16.9411C35.5948 21.1761 32.141 24.6224 27.898 24.6224H27.8946C26.6063 24.6219 25.3403 24.2993 24.2159 23.6873L20.1348 24.7554Z" fill="#B3B3B3"/>
<path d="M20.0566 24.6734L21.1489 20.6931C20.4741 19.5254 20.1197 18.2008 20.1213 16.8529C20.1231 12.6175 23.5764 9.17188 27.82 9.17188C29.8792 9.17292 31.8121 9.97277 33.2658 11.4247C34.7195 12.8766 35.5193 14.8065 35.5185 16.859C35.5167 21.0941 32.0628 24.5404 27.8199 24.5404H27.8165C26.5282 24.5398 25.2622 24.2173 24.1377 23.6053L20.0566 24.6734Z" fill="white"/>
<path d="M27.8212 10.4688C24.2916 10.4688 21.4212 13.3326 21.4199 16.8527C21.4182 18.0547 21.7573 19.2327 22.3981 20.2504L22.5504 20.492L21.9039 22.8478L24.3257 22.214L24.5595 22.3522C25.5417 22.934 26.6679 23.2417 27.8163 23.2423H27.8187C31.3456 23.2423 34.216 20.3782 34.2174 16.8578C34.22 16.0188 34.0559 15.1875 33.7345 14.4122C33.4131 13.6369 32.9408 12.9329 32.3449 12.341C31.7524 11.7459 31.0475 11.274 30.271 10.9526C29.4944 10.6312 28.6618 10.4668 27.8212 10.4688Z" fill="url(#paint0_linear_4972_567)"/>
<path fill-rule="evenodd" clip-rule="evenodd" d="M25.8941 13.6409C25.7499 13.3212 25.5982 13.3147 25.4612 13.3092L25.0925 13.3047C24.9642 13.3047 24.7558 13.3527 24.5796 13.5449C24.4034 13.737 23.9062 14.2014 23.9062 15.146C23.9062 16.0906 24.5956 17.0034 24.6916 17.1316C24.7877 17.2599 26.0223 19.2601 27.9776 20.0296C29.6025 20.6692 29.9331 20.542 30.2859 20.51C30.6387 20.4781 31.424 20.0456 31.5842 19.5973C31.7444 19.1489 31.7445 18.7648 31.6965 18.6845C31.6484 18.6042 31.5202 18.5565 31.3276 18.4604C31.1351 18.3643 30.1896 17.8999 30.0132 17.8358C29.8369 17.7717 29.7088 17.7398 29.5804 17.932C29.452 18.1241 29.0838 18.5564 28.9715 18.6845C28.8593 18.8127 28.7472 18.8287 28.5547 18.7328C28.3621 18.6368 27.7427 18.434 27.0078 17.7799C26.436 17.271 26.05 16.6426 25.9376 16.4505C25.8252 16.2585 25.9257 16.1544 26.0221 16.0588C26.1085 15.9727 26.2144 15.8346 26.3108 15.7225C26.4072 15.6105 26.4389 15.5304 26.5029 15.4024C26.567 15.2745 26.535 15.1621 26.4869 15.0662C26.4388 14.9702 26.065 14.0206 25.8941 13.6409Z" fill="white"/>
<path d="M42.6596 24.0039L40.5093 16.3849H41.9937L43.3664 21.9838H43.4371L44.9029 16.3849H46.2533L47.7228 21.9875H47.7898L49.1626 16.3849H50.6469L48.4967 24.0039H47.135L45.6097 18.6579H45.5502L44.0212 24.0039H42.6596ZM52.8912 20.6557V24.0039H51.5445V16.3849H52.8614V19.2606H52.9284C53.0623 18.9382 53.2694 18.684 53.5497 18.498C53.8324 18.3095 54.192 18.2152 54.6285 18.2152C55.0254 18.2152 55.3713 18.2983 55.6665 18.4645C55.9616 18.6306 56.1898 18.8737 56.351 19.1936C56.5147 19.5136 56.5965 19.9042 56.5965 20.3655V24.0039H55.2498V20.5738C55.2498 20.1894 55.1506 19.8906 54.9522 19.6773C54.7563 19.4615 54.481 19.3536 54.1263 19.3536C53.8882 19.3536 53.6749 19.4057 53.4864 19.5099C53.3004 19.6115 53.1541 19.7591 53.0474 19.9526C52.9433 20.146 52.8912 20.3804 52.8912 20.6557ZM59.6137 24.1192C59.2515 24.1192 58.9254 24.0547 58.6352 23.9258C58.3475 23.7943 58.1194 23.6009 57.9507 23.3454C57.7845 23.09 57.7014 22.775 57.7014 22.4005C57.7014 22.0781 57.761 21.8114 57.88 21.6006C57.9991 21.3898 58.1615 21.2212 58.3674 21.0947C58.5732 20.9682 58.8051 20.8727 59.0631 20.8082C59.3235 20.7413 59.5926 20.6929 59.8703 20.6631C60.2052 20.6284 60.4767 20.5974 60.6851 20.5701C60.8934 20.5404 61.0447 20.4957 61.1389 20.4362C61.2357 20.3742 61.284 20.2787 61.284 20.1497V20.1274C61.284 19.8472 61.201 19.6301 61.0348 19.4764C60.8686 19.3226 60.6293 19.2457 60.3168 19.2457C59.9869 19.2457 59.7253 19.3176 59.5318 19.4615C59.3408 19.6053 59.2119 19.7752 59.1449 19.9712L57.8875 19.7926C57.9867 19.4454 58.1504 19.1552 58.3785 18.9221C58.6067 18.6864 58.8857 18.5104 59.2156 18.3938C59.5454 18.2747 59.91 18.2152 60.3093 18.2152C60.5846 18.2152 60.8587 18.2475 61.1315 18.3119C61.4043 18.3764 61.6536 18.4831 61.8793 18.6319C62.105 18.7782 62.286 18.9779 62.4224 19.2308C62.5613 19.4838 62.6308 19.8 62.6308 20.1795V24.0039H61.3361V23.2189H61.2915C61.2096 23.3777 61.0943 23.5265 60.9455 23.6654C60.7992 23.8018 60.6144 23.9121 60.3912 23.9965C60.1704 24.0783 59.9113 24.1192 59.6137 24.1192ZM59.9634 23.1297C60.2337 23.1297 60.4681 23.0763 60.6665 22.9697C60.8649 22.8606 61.0174 22.7167 61.1241 22.5381C61.2332 22.3596 61.2878 22.1649 61.2878 21.9541V21.2807C61.2456 21.3154 61.1737 21.3477 61.072 21.3774C60.9728 21.4072 60.8612 21.4332 60.7372 21.4555C60.6132 21.4779 60.4904 21.4977 60.3689 21.5151C60.2473 21.5324 60.1419 21.5473 60.0526 21.5597C59.8517 21.587 59.6719 21.6316 59.5132 21.6936C59.3545 21.7556 59.2292 21.8424 59.1375 21.9541C59.0457 22.0632 58.9998 22.2046 58.9998 22.3782C58.9998 22.6262 59.0903 22.8134 59.2714 22.9399C59.4524 23.0664 59.6831 23.1297 59.9634 23.1297ZM66.8384 18.2896V19.3313H63.5534V18.2896H66.8384ZM64.3644 16.9206H65.7111V22.2852C65.7111 22.4662 65.7384 22.6051 65.793 22.7018C65.85 22.7961 65.9244 22.8606 66.0162 22.8953C66.1079 22.93 66.2096 22.9474 66.3212 22.9474C66.4056 22.9474 66.4825 22.9412 66.5519 22.9288C66.6238 22.9164 66.6784 22.9052 66.7156 22.8953L66.9425 23.9481C66.8706 23.9729 66.7677 24.0002 66.6337 24.0299C66.5023 24.0597 66.3411 24.0771 66.1501 24.082C65.8128 24.092 65.509 24.0411 65.2387 23.9295C64.9683 23.8154 64.7538 23.6393 64.5951 23.4012C64.4388 23.1631 64.3619 22.8655 64.3644 22.5084V16.9206ZM72.3992 19.8L71.1715 19.934C71.1368 19.81 71.076 19.6934 70.9892 19.5843C70.9049 19.4751 70.7908 19.3871 70.6469 19.3201C70.5031 19.2532 70.327 19.2197 70.1187 19.2197C69.8384 19.2197 69.6028 19.2804 69.4118 19.402C69.2233 19.5235 69.1303 19.681 69.1328 19.8744C69.1303 20.0406 69.1911 20.1758 69.3151 20.2799C69.4416 20.3841 69.6499 20.4697 69.9401 20.5366L70.9148 20.745C71.4555 20.8615 71.8573 21.0463 72.1202 21.2993C72.3855 21.5523 72.5195 21.8834 72.5219 22.2926C72.5195 22.6522 72.4141 22.9697 72.2057 23.245C71.9999 23.5178 71.7134 23.7311 71.3464 23.8849C70.9793 24.0386 70.5577 24.1155 70.0815 24.1155C69.3821 24.1155 68.8191 23.9692 68.3925 23.6765C67.9659 23.3814 67.7117 22.9709 67.6298 22.4451L68.9431 22.3186C69.0026 22.5766 69.1291 22.7713 69.3225 22.9027C69.516 23.0342 69.7677 23.0999 70.0778 23.0999C70.3977 23.0999 70.6544 23.0342 70.8478 22.9027C71.0438 22.7713 71.1417 22.6088 71.1417 22.4154C71.1417 22.2517 71.0785 22.1165 70.952 22.0099C70.828 21.9032 70.6345 21.8214 70.3716 21.7643L69.3969 21.5597C68.8488 21.4456 68.4433 21.2534 68.1804 20.9831C67.9175 20.7103 67.7873 20.3655 67.7898 19.9488C67.7873 19.5967 67.8828 19.2916 68.0763 19.0337C68.2722 18.7733 68.5438 18.5724 68.891 18.431C69.2407 18.2871 69.6437 18.2152 70.1001 18.2152C70.7697 18.2152 71.2967 18.3578 71.6812 18.643C72.0681 18.9283 72.3074 19.3139 72.3992 19.8ZM75.2768 24.1192C74.9147 24.1192 74.5885 24.0547 74.2984 23.9258C74.0107 23.7943 73.7825 23.6009 73.6138 23.3454C73.4477 23.09 73.3646 22.775 73.3646 22.4005C73.3646 22.0781 73.4241 21.8114 73.5432 21.6006C73.6622 21.3898 73.8246 21.2212 74.0305 21.0947C74.2364 20.9682 74.4682 20.8727 74.7262 20.8082C74.9866 20.7413 75.2557 20.6929 75.5335 20.6631C75.8683 20.6284 76.1399 20.5974 76.3482 20.5701C76.5565 20.5404 76.7078 20.4957 76.8021 20.4362C76.8988 20.3742 76.9472 20.2787 76.9472 20.1497V20.1274C76.9472 19.8472 76.8641 19.6301 76.6979 19.4764C76.5317 19.3226 76.2924 19.2457 75.9799 19.2457C75.65 19.2457 75.3884 19.3176 75.1949 19.4615C75.004 19.6053 74.875 19.7752 74.808 19.9712L73.5506 19.7926C73.6498 19.4454 73.8135 19.1552 74.0417 18.9221C74.2698 18.6864 74.5489 18.5104 74.8787 18.3938C75.2086 18.2747 75.5732 18.2152 75.9725 18.2152C76.2478 18.2152 76.5218 18.2475 76.7946 18.3119C77.0675 18.3764 77.3167 18.4831 77.5424 18.6319C77.7681 18.7782 77.9492 18.9779 78.0856 19.2308C78.2244 19.4838 78.2939 19.8 78.2939 20.1795V24.0039H76.9993V23.2189H76.9546C76.8728 23.3777 76.7574 23.5265 76.6086 23.6654C76.4623 23.8018 76.2775 23.9121 76.0543 23.9965C75.8336 24.0783 75.5744 24.1192 75.2768 24.1192ZM75.6265 23.1297C75.8968 23.1297 76.1312 23.0763 76.3296 22.9697C76.528 22.8606 76.6806 22.7167 76.7872 22.5381C76.8963 22.3596 76.9509 22.1649 76.9509 21.9541V21.2807C76.9087 21.3154 76.8368 21.3477 76.7351 21.3774C76.6359 21.4072 76.5243 21.4332 76.4003 21.4555C76.2763 21.4779 76.1535 21.4977 76.032 21.5151C75.9105 21.5324 75.8051 21.5473 75.7158 21.5597C75.5149 21.587 75.3351 21.6316 75.1763 21.6936C75.0176 21.7556 74.8924 21.8424 74.8006 21.9541C74.7088 22.0632 74.6629 22.2046 74.6629 22.3782C74.6629 22.6262 74.7535 22.8134 74.9345 22.9399C75.1156 23.0664 75.3462 23.1297 75.6265 23.1297ZM79.6481 26.1468V18.2896H80.9725V19.2346H81.0506C81.12 19.0957 81.218 18.9481 81.3445 18.7919C81.471 18.6331 81.6421 18.498 81.8579 18.3863C82.0737 18.2723 82.349 18.2152 82.6838 18.2152C83.1252 18.2152 83.5233 18.3281 83.878 18.5538C84.2351 18.777 84.5179 19.1081 84.7262 19.5471C84.937 19.9836 85.0424 20.5193 85.0424 21.1542C85.0424 21.7817 84.9395 22.3149 84.7336 22.7539C84.5278 23.1929 84.2475 23.5277 83.8929 23.7584C83.5382 23.989 83.1364 24.1044 82.6875 24.1044C82.3601 24.1044 82.0885 24.0498 81.8728 23.9407C81.657 23.8315 81.4834 23.7001 81.3519 23.5463C81.223 23.3901 81.1225 23.2425 81.0506 23.1036H80.9948V26.1468H79.6481ZM80.9687 21.1468C80.9687 21.5163 81.0208 21.84 81.125 22.1177C81.2316 22.3955 81.3842 22.6125 81.5826 22.7688C81.7835 22.9226 82.0265 22.9994 82.3118 22.9994C82.6094 22.9994 82.8586 22.9201 83.0595 22.7613C83.2604 22.6001 83.4117 22.3806 83.5134 22.1029C83.6176 21.8226 83.6696 21.5039 83.6696 21.1468C83.6696 20.7921 83.6188 20.4771 83.5171 20.2018C83.4154 19.9265 83.2641 19.7108 83.0632 19.5545C82.8623 19.3983 82.6119 19.3201 82.3118 19.3201C82.0241 19.3201 81.7798 19.3958 81.5789 19.5471C81.378 19.6984 81.2254 19.9104 81.1213 20.1832C81.0196 20.456 80.9687 20.7772 80.9687 21.1468ZM86.1957 26.1468V18.2896H87.5201V19.2346H87.5982C87.6677 19.0957 87.7656 18.9481 87.8921 18.7919C88.0186 18.6331 88.1897 18.498 88.4055 18.3863C88.6213 18.2723 88.8966 18.2152 89.2314 18.2152C89.6729 18.2152 90.0709 18.3281 90.4256 18.5538C90.7827 18.777 91.0655 19.1081 91.2738 19.5471C91.4846 19.9836 91.59 20.5193 91.59 21.1542C91.59 21.7817 91.4871 22.3149 91.2812 22.7539C91.0754 23.1929 90.7951 23.5277 90.4405 23.7584C90.0858 23.989 89.684 24.1044 89.2351 24.1044C88.9077 24.1044 88.6362 24.0498 88.4204 23.9407C88.2046 23.8315 88.031 23.7001 87.8995 23.5463C87.7706 23.3901 87.6701 23.2425 87.5982 23.1036H87.5424V26.1468H86.1957ZM87.5164 21.1468C87.5164 21.5163 87.5684 21.84 87.6726 22.1177C87.7793 22.3955 87.9318 22.6125 88.1302 22.7688C88.3311 22.9226 88.5742 22.9994 88.8594 22.9994C89.157 22.9994 89.4062 22.9201 89.6071 22.7613C89.808 22.6001 89.9593 22.3806 90.061 22.1029C90.1652 21.8226 90.2173 21.5039 90.2173 21.1468C90.2173 20.7921 90.1664 20.4771 90.0647 20.2018C89.963 19.9265 89.8118 19.7108 89.6109 19.5545C89.41 19.3983 89.1595 19.3201 88.8594 19.3201C88.5717 19.3201 88.3274 19.3958 88.1265 19.5471C87.9256 19.6984 87.7731 19.9104 87.6689 20.1832C87.5672 20.456 87.5164 20.7772 87.5164 21.1468Z" fill="#F5F5F5"/>
<path d="M44.1961 9.84477H43.3265C43.3016 9.70216 43.2559 9.57583 43.1893 9.46577C43.1226 9.35417 43.0397 9.25961 42.9405 9.18211C42.8413 9.1046 42.7281 9.04647 42.601 9.00772C42.4754 8.96742 42.3398 8.94727 42.1941 8.94727C41.9352 8.94727 41.7058 9.01237 41.5059 9.14258C41.3059 9.27124 41.1493 9.46035 41.0362 9.70991C40.923 9.95793 40.8664 10.261 40.8664 10.619C40.8664 10.9833 40.923 11.2902 41.0362 11.5398C41.1509 11.7878 41.3074 11.9754 41.5059 12.1025C41.7058 12.2281 41.9345 12.2908 42.1918 12.2908C42.3344 12.2908 42.4677 12.2722 42.5917 12.235C42.7173 12.1963 42.8296 12.1397 42.9289 12.0653C43.0296 11.9909 43.1141 11.8994 43.1823 11.7909C43.252 11.6824 43.3001 11.5584 43.3265 11.4189L44.1961 11.4235C44.1635 11.6499 44.093 11.8622 43.9845 12.0606C43.8775 12.2591 43.7372 12.4342 43.5636 12.5861C43.39 12.7365 43.1869 12.8543 42.9544 12.9395C42.7219 13.0233 42.4638 13.0651 42.1802 13.0651C41.7616 13.0651 41.3881 12.9682 41.0594 12.7745C40.7308 12.5807 40.4719 12.3009 40.2828 11.9351C40.0937 11.5693 39.9992 11.1306 39.9992 10.619C39.9992 10.106 40.0945 9.66729 40.2852 9.30301C40.4758 8.93719 40.7355 8.6574 41.0641 8.46363C41.3927 8.26987 41.7647 8.17299 42.1802 8.17299C42.4452 8.17299 42.6917 8.21019 42.9195 8.2846C43.1474 8.359 43.3505 8.46829 43.5287 8.61244C43.707 8.75505 43.8535 8.93021 43.9682 9.13793C44.0844 9.34409 44.1604 9.57971 44.1961 9.84477ZM46.5067 13.0698C46.1579 13.0698 45.8556 12.993 45.5999 12.8396C45.3441 12.6861 45.1457 12.4714 45.0046 12.1955C44.8651 11.9196 44.7954 11.5972 44.7954 11.2282C44.7954 10.8593 44.8651 10.5361 45.0046 10.2586C45.1457 9.98118 45.3441 9.76572 45.5999 9.61226C45.8556 9.4588 46.1579 9.38207 46.5067 9.38207C46.8554 9.38207 47.1577 9.4588 47.4135 9.61226C47.6692 9.76572 47.8669 9.98118 48.0064 10.2586C48.1475 10.5361 48.218 10.8593 48.218 11.2282C48.218 11.5972 48.1475 11.9196 48.0064 12.1955C47.8669 12.4714 47.6692 12.6861 47.4135 12.8396C47.1577 12.993 46.8554 13.0698 46.5067 13.0698ZM46.5113 12.3955C46.7004 12.3955 46.8585 12.3435 46.9857 12.2397C47.1128 12.1343 47.2073 11.9932 47.2693 11.8165C47.3329 11.6398 47.3647 11.4429 47.3647 11.2259C47.3647 11.0073 47.3329 10.8097 47.2693 10.633C47.2073 10.4547 47.1128 10.3129 46.9857 10.2075C46.8585 10.1021 46.7004 10.0494 46.5113 10.0494C46.3176 10.0494 46.1564 10.1021 46.0277 10.2075C45.9006 10.3129 45.8053 10.4547 45.7417 10.633C45.6797 10.8097 45.6487 11.0073 45.6487 11.2259C45.6487 11.4429 45.6797 11.6398 45.7417 11.8165C45.8053 11.9932 45.9006 12.1343 46.0277 12.2397C46.1564 12.3435 46.3176 12.3955 46.5113 12.3955ZM49.7741 10.9074V13H48.9324V9.42857H49.7369V10.0354H49.7787C49.8609 9.83547 49.9919 9.67659 50.1717 9.55878C50.353 9.44097 50.577 9.38207 50.8437 9.38207C51.0901 9.38207 51.3048 9.43477 51.4877 9.54018C51.6722 9.64559 51.8148 9.79827 51.9155 9.99823C52.0179 10.1982 52.0682 10.4408 52.0667 10.726V13H51.225V10.8562C51.225 10.6175 51.163 10.4307 51.039 10.2959C50.9165 10.161 50.7468 10.0936 50.5298 10.0936C50.3825 10.0936 50.2515 10.1261 50.1368 10.1912C50.0237 10.2548 49.9345 10.347 49.8694 10.4679C49.8059 10.5888 49.7741 10.7353 49.7741 10.9074ZM53.764 10.9074V13H52.9223V9.42857H53.7268V10.0354H53.7687C53.8508 9.83547 53.9818 9.67659 54.1616 9.55878C54.343 9.44097 54.567 9.38207 54.8336 9.38207C55.0801 9.38207 55.2948 9.43477 55.4777 9.54018C55.6621 9.64559 55.8047 9.79827 55.9055 9.99823C56.0078 10.1982 56.0582 10.4408 56.0566 10.726V13H55.2149V10.8562C55.2149 10.6175 55.1529 10.4307 55.0289 10.2959C54.9065 10.161 54.7367 10.0936 54.5197 10.0936C54.3725 10.0936 54.2415 10.1261 54.1268 10.1912C54.0136 10.2548 53.9245 10.347 53.8594 10.4679C53.7958 10.5888 53.764 10.7353 53.764 10.9074ZM58.4934 13.0698C58.1353 13.0698 57.8261 12.9953 57.5657 12.8465C57.3068 12.6962 57.1076 12.4838 56.9681 12.2094C56.8286 11.9335 56.7588 11.6088 56.7588 11.2352C56.7588 10.8678 56.8286 10.5454 56.9681 10.268C57.1092 9.98893 57.306 9.77192 57.5587 9.61691C57.8114 9.46035 58.1082 9.38207 58.4492 9.38207C58.6693 9.38207 58.877 9.41772 59.0724 9.48903C59.2692 9.55878 59.4428 9.66729 59.5932 9.81455C59.7451 9.96181 59.8645 10.1494 59.9513 10.3772C60.0381 10.6035 60.0815 10.8733 60.0815 11.1864V11.4445H57.1541V10.8771H59.2746C59.2731 10.7159 59.2382 10.5725 59.17 10.447C59.1018 10.3199 59.0065 10.2199 58.884 10.147C58.7631 10.0742 58.6221 10.0378 58.4608 10.0378C58.2888 10.0378 58.1376 10.0796 58.0074 10.1633C57.8772 10.2455 57.7757 10.354 57.7028 10.4888C57.6315 10.6221 57.5951 10.7686 57.5936 10.9283V11.4235C57.5936 11.6313 57.6315 11.8095 57.7075 11.9583C57.7834 12.1056 57.8896 12.2188 58.026 12.2978C58.1624 12.3753 58.3221 12.4141 58.505 12.4141C58.6275 12.4141 58.7383 12.397 58.8375 12.3629C58.9367 12.3273 59.0228 12.2753 59.0956 12.2071C59.1685 12.1389 59.2235 12.0544 59.2607 11.9537L60.0466 12.042C59.997 12.2498 59.9024 12.4311 59.7629 12.5861C59.625 12.7396 59.4483 12.8589 59.2328 12.9442C59.0173 13.0279 58.7709 13.0698 58.4934 13.0698ZM62.3514 13.0698C61.9949 13.0698 61.6887 12.9915 61.433 12.8349C61.1787 12.6784 60.9827 12.4621 60.8447 12.1862C60.7083 11.9087 60.6401 11.5894 60.6401 11.2282C60.6401 10.8655 60.7098 10.5454 60.8494 10.268C60.9889 9.98893 61.1857 9.77192 61.4399 9.61691C61.6957 9.46035 61.998 9.38207 62.3467 9.38207C62.6366 9.38207 62.8932 9.43555 63.1164 9.5425C63.3411 9.64791 63.5202 9.7975 63.6535 9.99126C63.7868 10.1835 63.8627 10.4082 63.8813 10.6656H63.0768C63.0443 10.4935 62.9668 10.3501 62.8443 10.2354C62.7234 10.1191 62.5614 10.061 62.3584 10.061C62.1863 10.061 62.0352 10.1075 61.905 10.2005C61.7748 10.292 61.6732 10.4237 61.6004 10.5958C61.5291 10.7679 61.4934 10.974 61.4934 11.2143C61.4934 11.4577 61.5291 11.6669 61.6004 11.8421C61.6717 12.0157 61.7717 12.1498 61.9003 12.2443C62.0305 12.3373 62.1832 12.3838 62.3584 12.3838C62.4824 12.3838 62.5932 12.3606 62.6909 12.3141C62.7901 12.266 62.873 12.197 62.9397 12.1071C63.0063 12.0172 63.052 11.908 63.0768 11.7793H63.8813C63.8612 12.032 63.7868 12.256 63.6581 12.4513C63.5295 12.645 63.3543 12.7969 63.1326 12.907C62.911 13.0155 62.6506 13.0698 62.3514 13.0698ZM66.3559 9.42857V10.0796H64.3028V9.42857H66.3559ZM64.8097 8.57292H65.6514V11.9258C65.6514 12.0389 65.6684 12.1257 65.7025 12.1862C65.7382 12.2451 65.7847 12.2854 65.842 12.3071C65.8994 12.3288 65.9629 12.3397 66.0327 12.3397C66.0854 12.3397 66.1334 12.3358 66.1768 12.328C66.2218 12.3203 66.2559 12.3133 66.2792 12.3071L66.421 12.9651C66.376 12.9806 66.3117 12.9977 66.228 13.0163C66.1458 13.0349 66.0451 13.0457 65.9257 13.0488C65.7149 13.055 65.525 13.0233 65.3561 12.9535C65.1871 12.8822 65.053 12.7721 64.9538 12.6233C64.8562 12.4745 64.8081 12.2885 64.8097 12.0653V8.57292ZM69.3582 8.2381L70.5975 11.9862H70.6464L71.8833 8.2381H72.832L71.1532 13H70.0883L68.4119 8.2381H69.3582ZM73.422 13V9.42857H74.2637V13H73.422ZM73.8452 8.92169C73.7119 8.92169 73.5972 8.87751 73.5011 8.78916C73.405 8.69925 73.3569 8.59152 73.3569 8.46596C73.3569 8.33885 73.405 8.23112 73.5011 8.14276C73.5972 8.05286 73.7119 8.00791 73.8452 8.00791C73.98 8.00791 74.0948 8.05286 74.1893 8.14276C74.2854 8.23112 74.3335 8.33885 74.3335 8.46596C74.3335 8.59152 74.2854 8.69925 74.1893 8.78916C74.0948 8.87751 73.98 8.92169 73.8452 8.92169ZM76.157 13.0721C75.9307 13.0721 75.7268 13.0318 75.5455 12.9512C75.3656 12.869 75.223 12.7481 75.1176 12.5884C75.0138 12.4288 74.9618 12.2319 74.9618 11.9979C74.9618 11.7963 74.999 11.6297 75.0734 11.498C75.1479 11.3662 75.2494 11.2608 75.378 11.1817C75.5067 11.1027 75.6516 11.043 75.8128 11.0027C75.9756 10.9608 76.1438 10.9306 76.3174 10.912C76.5267 10.8903 76.6964 10.8709 76.8266 10.8539C76.9568 10.8353 77.0514 10.8074 77.1103 10.7702C77.1707 10.7314 77.201 10.6718 77.201 10.5911V10.5772C77.201 10.402 77.149 10.2664 77.0452 10.1703C76.9413 10.0742 76.7917 10.0261 76.5964 10.0261C76.3903 10.0261 76.2267 10.0711 76.1058 10.161C75.9865 10.2509 75.9059 10.3571 75.864 10.4795L75.0781 10.3679C75.1401 10.1509 75.2424 9.96956 75.385 9.82385C75.5276 9.67659 75.702 9.56653 75.9082 9.49368C76.1143 9.41927 76.3422 9.38207 76.5918 9.38207C76.7638 9.38207 76.9351 9.40222 77.1056 9.44252C77.2761 9.48283 77.4319 9.54948 77.573 9.64249C77.714 9.73394 77.8272 9.85872 77.9125 10.0168C77.9993 10.1749 78.0427 10.3726 78.0427 10.6097V13H77.2335V12.5094H77.2056C77.1545 12.6086 77.0824 12.7016 76.9894 12.7884C76.8979 12.8737 76.7824 12.9426 76.6429 12.9953C76.505 13.0465 76.343 13.0721 76.157 13.0721ZM76.3755 12.4536C76.5445 12.4536 76.691 12.4203 76.815 12.3536C76.939 12.2854 77.0343 12.1955 77.101 12.0839C77.1692 11.9723 77.2033 11.8506 77.2033 11.7188V11.298C77.1769 11.3197 77.132 11.3398 77.0684 11.3584C77.0064 11.377 76.9367 11.3933 76.8592 11.4073C76.7817 11.4212 76.7049 11.4336 76.629 11.4445C76.553 11.4553 76.4871 11.4646 76.4313 11.4724C76.3058 11.4894 76.1934 11.5173 76.0942 11.5561C75.995 11.5948 75.9167 11.6491 75.8593 11.7188C75.802 11.787 75.7733 11.8754 75.7733 11.9839C75.7733 12.1389 75.8299 12.256 75.9431 12.335C76.0562 12.4141 76.2004 12.4536 76.3755 12.4536Z" fill="#F5F5F5"/>
<defs>
<linearGradient id="paint0_linear_4972_567" x1="27.6884" y1="11.2353" x2="27.753" y2="22.1511" gradientUnits="userSpaceOnUse">
<stop stop-color="#57D163"/>
<stop offset="1" stop-color="#23B33A"/>
</linearGradient>
</defs>
</svg>
